HIERARCHY
ROOT Hips
{
  OFFSET 31.0223 45.8562 8.46705
  CHANNELS 6 Xposition Yposition Zposition Zrotation Xrotation Yrotation
  JOINT ToSpine
  {
    OFFSET -0.0105055 1.38907 -7.13956
    CHANNELS 3 Zrotation Xrotation Yrotation
    JOINT Spine
    {
      OFFSET 0.0105055 10 1
      CHANNELS 3 Zrotation Xrotation Yrotation
      JOINT Spine1
      {
        OFFSET 0 12 1.60637
        CHANNELS 3 Zrotation Xrotation Yrotation
        JOINT Neck
        {
          OFFSET 0 27 2.26658
          CHANNELS 3 Zrotation Xrotation Yrotation
          JOINT Head
          {
            OFFSET 0 9 2.12705
            CHANNELS 3 Zrotation Xrotation Yrotation
            End Site
            {
              OFFSET 0 11 2
            }
          }
        }
        JOINT LeftShoulder
        {
          OFFSET 8 19.6109 2.86452
          CHANNELS 3 Zrotation Xrotation Yrotation
          JOINT LeftArm
          {
            OFFSET 12 1 0.681055
            CHANNELS 3 Zrotation Xrotation Yrotation
            JOINT LeftForeArm
            {
              OFFSET 19 0 -1.52608
              CHANNELS 3 Zrotation Xrotation Yrotation
              JOINT LeftHand
              {
                OFFSET 23 0 0
                CHANNELS 3 Zrotation Xrotation Yrotation
                End Site
                {
                  OFFSET 10 0 0
                }
              }
            }
          }
        }
        JOINT RightShoulder
        {
          OFFSET -8 19.6109 2.86452
          CHANNELS 3 Zrotation Xrotation Yrotation
          JOINT RightArm
          {
            OFFSET -12 1 0.681055
            CHANNELS 3 Zrotation Xrotation Yrotation
            JOINT RightForeArm
            {
              OFFSET -19 0 -1.52608
              CHANNELS 3 Zrotation Xrotation Yrotation
              JOINT RightHand
              {
                OFFSET -23 0 0
                CHANNELS 3 Zrotation Xrotation Yrotation
                End Site
                {
                  OFFSET -10 0 0
                }
              }
            }
          }
        }
      }
    }
  }
  JOINT LeftUpLeg
  {
    OFFSET 9 -7.17245 0
    CHANNELS 3 Zrotation Xrotation Yrotation
    JOINT LeftLeg
    {
      OFFSET 0 -44.1113 0
      CHANNELS 3 Zrotation Xrotation Yrotation
      JOINT LeftFoot
      {
        OFFSET 0 -36.1829 0
        CHANNELS 3 Zrotation Xrotation Yrotation
        JOINT LeftToeBase
        {
          OFFSET 0 -4.84184 13
          CHANNELS 3 Zrotation Xrotation Yrotation
          End Site
          {
            OFFSET 0 1 6
          }
        }
      }
    }
  }
  JOINT RightUpLeg
  {
    OFFSET -9 -7.17245 0
    CHANNELS 3 Zrotation Xrotation Yrotation
    JOINT RightLeg
    {
      OFFSET 0 -44.0551 0
      CHANNELS 3 Zrotation Xrotation Yrotation
      JOINT RightFoot
      {
        OFFSET 0 -36.1469 0
        CHANNELS 3 Zrotation Xrotation Yrotation
        JOINT RightToeBase
        {
          OFFSET 0 -4.92256 13
          CHANNELS 3 Zrotation Xrotation Yrotation
          End Site
          {
            OFFSET 0 1 6
          }
        }
      }
    }
  }
}
MOTION
Frames:	17
Frame Time:	0.0333333
-1.58584 97.0645 87.6133 2.42547 -3.9315 -6.5374 0 0 0 4.53662 5.57609 2.49704 -10.1461 3.39375 4.36803 9.01102 14.9901 -1.06324 1.05217 -2.61763 2.54389 -29.3347 3.06259 -5.13235 -24.2411 14.847 -25.2931 -2.41926 4.33843 -4.40422 -8.18765 0.0312159 -0.436141 23.6909 6.03568 16.4611 53.3357 11.9774 0.691748 3.82695 -3.6993 5.51486 0.76273 0.0230273 3.45849 -6.95651 -5.51234 3.17632 -2.64545 25.36 -15.9032 14.5173 -12.1329 1.55107 -0.355843 0.28834 1.39418 -6.03152 -13.7222 -1.55459 -6.29919e-007 56.5502 -8.66752 -28.5091 -11.7537 -2.9959 4.41197 -17.0813 -6.92153 
-2.59222 97.3143 90.5083 1.79373 -3.73423 -4.29767 0 0 0 2.19044 5.6791 1.41953 -6.79658 2.71746 2.56534 10.0156 15.4016 -1.32244 0.522556 -2.61601 2.84988 -26.761 3.12319 -5.97104 -23.6729 12.3573 -29.4494 -1.49338 5.68658 -5.84117 -8.80562 0.0380531 -0.494224 23.6748 5.85461 15.8824 53.4406 11.2653 -1.61848 3.71779 -4.08313 6.0215 1.60383 0.0446412 3.18853 -5.93282 -2.35971 2.99069 -2.10693 22.9826 -17.1781 15.1593 -13.2421 1.76983 0.0376317 0.271541 -0.228547 -4.62271 -16.9123 -0.457137 5.13086e-009 49.4573 -12.6451 -29.5702 -10.0905 -2.66964 4.45316 -17.2557 -6.79566 
-3.597 97.4806 93.6301 1.05501 -3.71205 -2.51626 0 0 0 0.0646665 5.67787 0.542375 -3.64726 2.49834 1.06084 11.2786 15.095 -1.61512 -0.691603 -2.22478 3.31276 -24.1208 3.16367 -6.89024 -24.1865 9.60451 -33.2185 -0.782396 4.99217 -7.1255 -8.4727 0.120578 -1.62771 23.6809 5.80656 15.7224 53.5652 10.2894 -3.84003 3.72232 -5.40989 6.69683 2.26348 0.0545097 2.75873 -4.3112 0.834878 4.06732 -1.68127 21.0904 -20.3495 15.3101 -14.3743 1.94201 -0.0313905 1.13817 -0.169251 -3.181 -18.9962 0.604267 3.18757e-007 40.6589 -13.4218 -25.2291 -7.84836 -1.75902 4.13617 -15.7691 -6.74629 
-4.54551 97.1523 96.9483 0.940752 -3.73341 -0.630779 0 0 0 -2.28295 5.86249 -0.406438 -1.24863 1.97138 -0.369803 12.6714 15.2717 -2.07273 -1.97624 -2.35657 3.72466 -22.1441 3.15508 -7.54011 -23.944 7.56794 -36.9327 -0.0929613 5.41102 -8.27742 -7.02799 0.138275 -2.25146 24.519 5.90893 15.5567 53.1381 9.84754 -6.12696 3.70713 -5.50162 7.24705 2.6221 0.0686616 2.99946 -2.93056 3.64395 5.50719 -1.86106 20.3819 -23.5759 16.915 -15.898 2.37886 0.217862 1.21548 -1.18935 -2.97732 -20.0575 -0.53535 -6.43765e-008 30.9103 -9.15793 -25.0673 -4.12281 -0.916923 4.42097 -17.1013 -6.76509 
-5.39912 96.6571 100.514 0.590803 -3.83972 0.759652 0 0 0 -4.5032 5.85448 -1.01519 1.7264 1.67985 -1.52712 13.58 15.3482 -2.4025 -2.97694 -2.11742 3.99806 -21.3963 3.28671 -8.28758 -24.1343 4.91922 -39.483 1.0042 5.89675 -10.584 -6.73435 0.157192 -2.67122 24.7729 5.8889 15.347 52.989 9.45271 -8.12162 3.60828 -5.09324 7.56077 2.33432 0.0683025 3.01074 -1.15567 7.00243 7.20771 -2.51723 19.0474 -27.2071 18.0161 -16.8254 2.68614 -0.104063 0.173412 0.385632 -2.46399 -19.9999 -2.72075 0.0448206 20.2887 -3.60939 -24.57 -0.976761 -0.212705 4.54131 -17.7589 -7.34318 
-6.17932 95.8518 104.263 0.445798 -4.18818 1.51981 0 0 0 -6.23804 5.45627 -1.47958 3.70081 2.02598 -2.34499 14.176 15.4133 -2.38378 -3.64382 -2.62431 4.40853 -21.7759 3.46377 -8.76187 -24.0632 2.07838 -41.893 2.20535 7.03216 -12.6934 -6.09468 0.188175 -3.5336 25.5976 5.98396 15.1783 52.4026 9.10756 -9.6309 3.6558 -5.43944 7.5458 2.51277 0.0654194 2.98221 0.379684 10.5521 8.93746 -3.24584 18.3689 -30.0176 19.615 -18.39 3.20571 -0.0917545 0.0102617 0.38047 -1.79867 -19.6421 -2.88623 1.01158 11.4434 -2.1717 -22.7975 1.69078 0.340905 4.79672 -18.9359 -7.18302 
-6.86997 94.8636 108.061 0.274075 -5.03305 1.55734 0 0 0 -7.4834 5.37905 -1.65423 5.25646 2.55783 -2.83634 14.4745 15.5443 -2.23707 -3.58912 -2.44518 4.69746 -21.6082 3.44778 -8.77398 -27.045 -1.32285 -43.6653 4.17313 10.4989 -15.7654 -5.59023 0.194687 -3.98603 26.3706 6.11661 15.1566 51.9569 8.8826 -10.837 3.77768 -5.96292 7.40868 2.97239 0.0694947 2.67807 1.41876 15.3331 10.3519 -3.7776 16.3729 -31.8777 21.3295 -19.4708 3.70106 -0.272783 -1.20713 1.52987 -0.614104 -19.8381 -2.25339 1.33145 7.42894 -2.6351 -21.0279 1.71313 0.317964 4.77041 -18.6904 -6.61258 
-7.67524 93.8238 111.922 -0.303329 -4.99593 1.38038 0 0 0 -8.35894 4.7277 -1.94019 6.61979 2.69378 -3.37859 15.1974 15.8604 -2.32875 -4.18677 -2.32947 5.08418 -21.7972 3.41679 -8.5881 -29.8085 -3.94568 -44.423 5.22925 11.9585 -19.1154 -5.79831 0.206318 -4.07226 27.7737 6.17841 14.5987 51.1999 8.56592 -11.5425 3.675 -5.47112 6.9835 3.2382 0.0763631 2.70107 3.11622 18.6271 11.8356 -4.36047 15.7104 -33.3214 21.8616 -21.4164 4.18306 -0.056469 -1.09951 0.554965 1.18933 -20.9186 -0.923514 1.47673 7.1066 -2.45997 -21.3588 1.2296 0.231886 4.66296 -18.3118 -7.21278 
-8.39711 92.8466 115.957 -1.21682 -5.1333 1.21125 0 0 0 -8.61563 4.17406 -2.20419 8.23596 2.88001 -4.08698 14.1638 16.3093 -1.63232 -3.63893 -2.11307 5.29074 -22.9864 3.39151 -8.04198 -33.5558 -6.35858 -44.5799 6.82142 15.3611 -22.2292 -5.90937 0.214057 -4.14541 27.8415 6.19599 14.6147 51.1709 7.26392 -12.599 3.37232 -5.2461 6.91545 3.81499 0.0793365 2.38182 4.92219 21.7119 12.9751 -4.27942 15.879 -34.4525 20.7471 -23.5093 4.36286 0.135436 -0.495575 -0.4395 3.14002 -20.7002 0.198089 2.01546 8.60191 -2.71697 -21.1586 1.03626 0.193548 4.75963 -18.9516 -8.02966 
-9.01834 92.7365 119.835 -2.7881 -5.47533 0.870804 0 0 0 -7.3292 3.36199 -2.49221 9.05843 4.28301 -4.73684 13.7578 16.5549 -1.24004 -3.42961 -2.14307 5.49832 -23.6311 3.46833 -8.06181 -34.9285 -6.06069 -43.2862 7.30368 16.0571 -23.9123 -5.78531 0.236556 -4.67896 28.4358 6.16587 14.2302 51.119 5.37436 -13.225 2.88931 -4.89877 7.05571 4.61776 0.097677 2.42222 6.57119 25.8425 13.2399 -3.88346 12.7938 -34.1449 19.4425 -21.6989 3.76108 0.388044 -3.28448 -0.821338 5.52774 -20.8472 0.984241 2.1755 12.9776 -2.03228 -20.3973 4.54041 0.81725 4.57437 -17.676 -5.93048 
-9.68147 92.8579 123.97 -4.4437 -5.5024 0.71226 0 0 0 -6.30858 2.0861 -2.94344 10.3617 5.5178 -5.54636 12.986 16.1422 -0.716789 -3.67721 -0.750388 5.72928 -24.66 3.4278 -7.56671 -35.5745 -3.79313 -41.3718 7.49445 16.4994 -23.8428 -5.99189 0.250248 -4.77874 27.9592 5.93274 13.798 51.8785 4.71018 -13.1494 2.78956 -4.97862 6.72104 4.84302 0.0945012 2.2344 8.1353 28.5702 12.9688 -2.71787 11.2359 -32.9801 15.7686 -18.0747 2.52359 1.25835 -9.77413 -3.90975 8.00565 -21.0621 1.73883 1.94246 16.3051 -1.9874 -19.6602 8.75531 1.51991 4.62101 -18.4394 -8.82443 
-10.1709 92.8412 128.445 -5.6539 -5.75853 0.0950094 0 0 0 -4.75706 0.949433 -3.12902 10.4593 6.13723 -5.79038 11.6481 16.6526 -0.160663 -3.31551 -0.320293 5.69255 -25.4726 3.45216 -7.37242 -35.5271 0.475422 -38.6039 6.92401 15.9593 -21.175 -6.35205 0.276986 -4.98859 27.715 5.8482 13.6728 52.1365 4.32015 -13.0405 2.77517 -5.33184 6.154 5.74338 0.0888944 1.77199 8.64797 29.5671 11.8858 -0.740285 14.0279 -29.5489 13.5494 -14.0189 1.67361 1.72249 -18.6128 -5.90639 9.57569 -20.4527 -0.292252 1.72225 21.0145 -0.671817 -20.5709 10.2109 1.85772 4.53535 -17.9976 -8.79716 
-10.7164 93.1331 132.783 -6.41616 -6.01707 -0.281978 0 0 0 -3.47257 0.467141 -3.16688 10.2366 5.93852 -5.82273 10.1534 17.5525 0.313365 -2.91137 -0.590697 5.50394 -26.2671 3.51923 -7.32273 -33.7844 7.83786 -36.2177 4.33384 12.4137 -15.5977 -6.67056 0.274633 -4.70987 27.3007 5.86025 13.9118 52.6765 3.85653 -12.9429 2.70552 -5.59529 6.07328 5.49399 0.113236 2.35969 9.53819 27.8629 10.6099 1.06226 21.503 -28.15 8.43318 -9.975 0.737275 1.94862 -22.6246 -9.73871 10.4089 -19.4247 -4.03838 0.559138 25.6205 2.15982 -19.2796 6.10622 1.03811 3.70357 -13.7239 -8.04973 
-11.3951 93.4483 136.882 -6.7904 -6.52322 -1.99535 0 0 0 -2.32278 0.296217 -2.31576 9.40087 6.18396 -4.8963 8.98171 17.5333 0.807333 -2.18688 -0.49422 5.32519 -26.5991 3.49464 -7.14286 -32.602 14.6174 -34.9539 0.106651 8.64889 -8.99412 -9.0351 0.324392 -4.10397 27.2434 6.03057 14.4401 52.4664 4.27319 -12.0177 2.74774 -5.46615 5.9569 5.83168 0.136635 2.68206 10.2908 24.7193 8.07031 0.0325204 31.9861 -24.6124 6.12538 -3.73777 0.20006 1.85056 -19.5297 -7.5262 11.6821 -17.0364 -3.82873 1.06975e-007 28.4314 3.04189 -19.7955 1.95138 0.340524 3.5651 -13.0309 -7.99199 
-12.013 94.2561 140.624 -6.45678 -6.95892 -1.60783 0 0 0 -2.07172 0.650408 -2.04811 8.69952 6.2271 -4.73528 7.99542 16.9793 1.20777 -1.737 -0.506806 5.15441 -27.2613 3.55655 -7.12359 -32.8232 18.0014 -34.3314 -3.8223 9.99123 -1.06097 -11.5962 0.393897 -3.87765 27.1946 6.09679 14.6596 51.8299 4.706 -9.90436 2.71773 -5.22222 6.20707 5.87126 0.12544 2.44574 11.7831 18.281 6.97487 -4.57935e-007 44.4982 -24.7277 1.56204 2.13366 -0.02909 0.956314 -2.11738 -3.6993 11.3925 -13.4236 -4.9762 2.63902e-008 27.6009 3.16266 -19.7788 -0.719208 -0.125386 3.49445 -12.716 -7.27481 
-12.4947 94.7469 143.647 -6.51114 -7.20848 -0.965807 0 0 0 -0.657346 2.079 -1.97477 7.32895 5.46935 -4.28757 7.61647 16.4484 1.24348 -2.01025 -0.578097 5.04551 -27.4478 3.55265 -7.05508 -33.0936 22.5876 -32.3706 -7.42063 8.67736 4.30065 -11.4736 0.35871 -3.56947 27.0183 6.19095 15.0293 51.2619 6.24519 -7.15694 2.96966 -4.977 5.73246 5.60954 0.142539 2.90884 13.1242 11.2033 6.47242 -4.39077e-007 54.4438 -23.2147 0.118394 6.12734 -0.00633672 0.657116 -7.79591 -0.826807 11.5124 -10.4254 -6.16252 0.0560602 26.444 3.33976 -19.9341 -2.30932 -0.40588 3.55837 -13.03 -7.18436 
-12.7376 95.1466 146.491 -6.58095 -6.97948 -0.473074 0 0 0 1.61148 2.44453 -1.66132 5.34777 5.60083 -3.30624 7.36097 15.9238 0.890786 -2.05378 -0.813005 4.54519 -28.008 3.61063 -7.05611 -36.0752 23.7549 -28.4381 -8.60808 6.9793 4.5811 -9.06565 0.296962 -3.74449 26.9154 6.18896 15.0783 50.232 7.45207 -4.56848 3.08993 -4.76241 6.33073 4.6253 0.129228 3.19906 13.388 4.07048 5.66245 1.69359e-006 61.77 -20.8278 2.56568 -2.76133 0.0618479 0.53946 -2.54221 -1.71622 11.4187 -8.00472 -6.64075 0.543623 25.2587 3.20712 -18.3245 -4.31771 -0.696719 3.38584 -12.212 -6.95722 
